<svg id="图层_1" data-name="图层 1" xmlns="http://www.w3.org/2000/svg" xmlns:xlink="http://www.w3.org/1999/xlink" viewBox="0 0 11.5 32"><defs><style>.cls-1{fill:url(#未命名的渐变_107);}.cls-2{fill:url(#未命名的渐变_107-2);}</style><linearGradient id="未命名的渐变_107" x1="10.47" y1="6.86" x2="18.17" y2="6.86" gradientUnits="userSpaceOnUse"><stop offset="0" stop-color="#2d6ead"/><stop offset="0.77" stop-color="#57b490"/></linearGradient><linearGradient id="未命名的渐变_107-2" x1="13.03" y1="24.21" x2="22.14" y2="9.11" xlink:href="#未命名的渐变_107"/></defs><path class="cls-1" d="M15.92.26a1.72,1.72,0,0,1,0,1.4c-.75,1.61-5.46,3.58-5.45,7.21a5.35,5.35,0,0,0,2.71,4.58A3.48,3.48,0,0,1,13.34,9C14.9,7.17,18,6.21,18.15,4.31,18.39,1.87,15.92.26,15.92.26Z" transform="translate(-10.47 -0.26)"/><path class="cls-2" d="M19,4.7a6.13,6.13,0,0,1,.75,3.46c-1.28,6.16-8.64,7-9,15.8-.31,6.65,3.27,8.3,3.27,8.3s-2.27-2.77-.38-7.18c2.31-5.35,9-12.24,8.32-16.17A7.14,7.14,0,0,0,19,4.7Z" transform="translate(-10.47 -0.26)"/></svg>